<svg width="16" height="16" viewBox="0 0 16 16" version="1.1" xmlns="http://www.w3.org/2000/svg" xmlns:xlink="http://www.w3.org/1999/xlink">
<g id="Canvas" transform="translate(433 114)">
<g id="favicon">
<g id="Subtract">
<use xlink:href="#path0_fill" transform="translate(-433 -114)"/>
<mask id="mask0_outline_ins">
<use xlink:href="#path0_fill" fill="white" transform="translate(-433 -114)"/>
</mask>
<g mask="url(#mask0_outline_ins)">
<use xlink:href="#path1_stroke_2x" transform="translate(-433 -114)"/>
</g>
</g>
</g>
</g>
<defs>
<path id="path0_fill" fill-rule="evenodd" d="M 15.7656 9.93008C 15.9187 9.31195 16 8.66547 16 8C 16 3.58173 12.4183 0 8 0C 3.58167 0 0 3.58173 0 8C 0 8.68968 0.0872803 9.35896 0.251343 9.99744L 0.252197 9.98198C 0.264282 10.0781 0.345947 10.2487 0.576538 10.1622L 5.08105 4.07207C 5.28528 3.73573 5.84497 3.26486 6.45044 4.07207C 7.05579 4.87929 8.81677 7.41141 9.62158 8.57658C 9.83777 8.82883 10.3856 9.18198 10.8468 8.57658C 11.3081 7.91351 11.7598 7.26727 11.9279 7.02702C 12.0961 6.78679 12.5477 6.45045 13.009 7.02702C 13.4702 7.60361 14.7147 9.33333 15.2793 10.1261C 15.3513 10.2583 15.5315 10.4432 15.6757 10.1261C 15.7075 10.056 15.7377 9.99043 15.7656 9.93008ZM 13.9448 13.3536C 13.9982 13.1776 13.9758 12.9369 13.5856 12.9369L 11.3153 12.9369C 11.027 12.9369 10.7026 12.7207 10.4865 12.4324C 10.2559 12.1441 8.80481 10.1982 8.10803 9.26126C 7.97595 9.02103 7.60364 8.68469 7.17114 9.26126C 6.73877 9.83784 5.93396 10.9429 5.58557 11.4234C 5.46545 11.6396 5.12427 11.9423 4.7207 11.4234C 4.31714 10.9045 4.19214 10.7267 4.18018 10.7027C 4.08411 10.5105 3.79822 10.2414 3.42334 10.7027C 3.04858 11.164 2.30627 12.1922 1.98193 12.6487C 1.92749 12.7576 1.85315 13.013 1.94751 13.2316C 3.41443 14.9272 5.58191 16 8 16C 10.3596 16 12.4806 14.9785 13.9448 13.3536Z"/>
<path id="path1_stroke_2x" d="M 15.7656 9.93008L 16.673 10.3504L 16.7133 10.2635L 16.7363 10.1705L 15.7656 9.93008ZM 0.251343 9.99744L -0.717193 10.2463L 1.24982 10.0526L 0.251343 9.99744ZM 0.252197 9.98198L 1.24438 9.85721L -0.746278 9.92678L 0.252197 9.98198ZM 0.576538 10.1622L 0.927716 11.0985L 1.20464 10.9946L 1.38052 10.7568L 0.576538 10.1622ZM 5.08105 4.07207L 5.88503 4.66673L 5.91215 4.63006L 5.93582 4.59108L 5.08105 4.07207ZM 6.45044 4.07207L 7.25047 3.47211L 7.25041 3.47203L 6.45044 4.07207ZM 9.62158 8.57658L 8.79878 9.14491L 8.82839 9.18778L 8.86229 9.22734L 9.62158 8.57658ZM 10.8468 8.57658L 11.6423 9.18257L 11.6554 9.1654L 11.6677 9.14768L 10.8468 8.57658ZM 11.9279 7.02702L 11.1087 6.45345L 11.1085 6.45375L 11.9279 7.02702ZM 13.009 7.02702L 13.79 6.4024L 13.7899 6.40229L 13.009 7.02702ZM 15.2793 10.1261L 16.1573 9.64752L 16.1286 9.59488L 16.0939 9.54606L 15.2793 10.1261ZM 15.6757 10.1261L 16.586 10.54L 16.5861 10.5397L 15.6757 10.1261ZM 13.9448 13.3536L 14.6877 14.023L 14.8371 13.8573L 14.9018 13.6437L 13.9448 13.3536ZM 10.4865 12.4324L 11.2865 11.8325L 11.2771 11.82L 11.2674 11.8078L 10.4865 12.4324ZM 8.10803 9.26126L 7.23174 9.74304L 7.26474 9.80305L 7.3056 9.85801L 8.10803 9.26126ZM 7.17114 9.26126L 6.37119 8.6612L 6.3711 8.66132L 7.17114 9.26126ZM 5.58557 11.4234L 4.77599 10.8364L 4.74066 10.8852L 4.71142 10.9378L 5.58557 11.4234ZM 4.7207 11.4234L 3.93132 12.0373L 3.93133 12.0373L 4.7207 11.4234ZM 4.18018 10.7027L 5.0754 10.2571L 5.07465 10.2556L 4.18018 10.7027ZM 3.42334 10.7027L 2.64731 10.072L 2.6472 10.0721L 3.42334 10.7027ZM 1.98193 12.6487L 1.16677 12.0694L 1.12194 12.1325L 1.08736 12.2017L 1.98193 12.6487ZM 1.94751 13.2316L 1.02936 13.6279L 1.09042 13.7694L 1.19125 13.8859L 1.94751 13.2316ZM 15 8C 15.002 8.60296 14.9356 9.12906 14.7949 9.6897L 16.7363 10.1705C 16.9018 9.49484 16.998 8.72797 17 8L 15 8ZM 8 1C 11.866 1 15 4.13401 15 8L 17 8C 17 3.02945 12.9706 -1 8 -1L 8 1ZM 1 8C 1 4.13401 4.13395 1 8 1L 8 -1C 3.02938 -1 -1 3.02945 -1 8L 1 8ZM 1.21988 9.74856C 1.06917 9.16952 0.997899 8.62489 1 8L -1 8C -0.997899 8.75448 -0.894611 9.54841 -0.717193 10.2463L 1.21988 9.74856ZM -0.746278 9.92678L -0.747133 9.94224L 1.24982 10.0526L 1.25067 10.0372L -0.746278 9.92678ZM 0.22536 9.22586C 0.285962 9.20313 0.404976 9.17194 0.561511 9.19266C 0.725722 9.2144 0.872741 9.28583 0.986184 9.38384C 1.18249 9.55344 1.23117 9.75216 1.24438 9.85721L -0.739988 10.1068C -0.714694 10.3079 -0.619138 10.64 -0.321328 10.8973C 0.0573546 11.2244 0.537975 11.2447 0.927716 11.0985L 0.22536 9.22586ZM 4.27708 3.47741L -0.22744 9.56751L 1.38052 10.7568L 5.88503 4.66673L 4.27708 3.47741ZM 7.25041 3.47203C 6.79234 2.86133 6.12923 2.48843 5.37815 2.67176C 4.77411 2.8192 4.39733 3.27137 4.22629 3.55305L 5.93582 4.59108C 5.93239 4.59703 5.93337 4.59405 5.93812 4.58767C 5.94333 4.5801 5.93779 4.58727 5.94372 4.58041C 5.94994 4.57264 5.9433 4.58001 5.94957 4.57385C 5.95275 4.5705 5.94848 4.57471 5.95153 4.5719C 5.95458 4.56892 5.95504 4.5689 5.95222 4.57126C 5.94661 4.57647 5.95173 4.57224 5.94777 4.57466C 5.94402 4.57774 5.93313 4.58438 5.93197 4.58453C 5.91713 4.59282 5.89051 4.60542 5.85241 4.61472C 5.81304 4.62433 5.76612 4.62919 5.71564 4.62466C 5.66478 4.6201 5.62364 4.6072 5.59536 4.59433C 5.54182 4.56995 5.56783 4.56193 5.65047 4.67211L 7.25041 3.47203ZM 10.4444 8.00826C 9.63867 6.84176 7.86642 4.29374 7.25047 3.47211L 5.65041 4.67202C 6.24515 5.46484 7.99488 7.98105 8.79878 9.14491L 10.4444 8.00826ZM 10.0513 7.9706C 10.0231 8.00768 10.0395 7.97126 10.1182 7.93964C 10.2003 7.90662 10.2819 7.90635 10.3377 7.91746C 10.3841 7.92672 10.4013 7.94091 10.3928 7.93525C 10.3849 7.92995 10.3785 7.92305 10.3809 7.92583L 8.86229 9.22734C 9.0594 9.45732 9.43329 9.77662 9.94698 9.87893C 10.5747 10.004 11.2002 9.76292 11.6423 9.18257L 10.0513 7.9706ZM 11.1085 6.45375C 10.9403 6.69421 10.4878 7.34154 10.0259 8.00549L 11.6677 9.14768C 12.1284 8.48549 12.5793 7.84034 12.7472 7.60029L 11.1085 6.45375ZM 13.7899 6.40229C 13.3778 5.88724 12.7881 5.60269 12.1442 5.74396C 11.6212 5.85871 11.2764 6.21398 11.1087 6.45345L 12.747 7.6006C 12.7422 7.61079 12.7171 7.63887 12.7125 7.63725C 12.6991 7.64762 12.6536 7.67977 12.5729 7.69749C 12.4798 7.71791 12.3746 7.71064 12.2843 7.673C 12.2036 7.63933 12.1906 7.60482 12.2282 7.65176L 13.7899 6.40229ZM 16.0939 9.54606C 15.5279 8.75128 14.2668 6.99908 13.79 6.4024L 12.2281 7.65165C 12.6736 8.20813 13.9016 9.91538 14.4647 10.7062L 16.0939 9.54606ZM 14.7653 9.71227C 14.7679 9.70651 14.83 9.56372 15.0135 9.44303C 15.2439 9.29145 15.5227 9.26759 15.7559 9.3424C 15.942 9.40211 16.0461 9.50569 16.0781 9.53953C 16.1184 9.58226 16.1421 9.61953 16.1573 9.64752L 14.4013 10.6047C 14.4634 10.7187 14.6868 11.0998 15.1449 11.2468C 15.4502 11.3447 15.8056 11.3159 16.1126 11.1139C 16.3727 10.9429 16.5113 10.7043 16.586 10.54L 14.7653 9.71227ZM 14.8582 9.50978C 14.8297 9.57134 14.798 9.64027 14.7652 9.71258L 16.5861 10.5397C 16.617 10.4717 16.6456 10.4095 16.673 10.3504L 14.8582 9.50978ZM 13.5856 13.9369C 13.5838 13.9369 13.5657 13.9369 13.5353 13.9313C 13.5047 13.9257 13.4582 13.9139 13.4028 13.8889C 13.2811 13.8341 13.1543 13.7323 13.0667 13.5813C 12.91 13.3114 12.9816 13.0839 12.9878 13.0635L 14.9018 13.6437C 14.9614 13.4473 15.0485 13.0115 14.7964 12.5772C 14.5001 12.0668 13.9723 11.9369 13.5856 11.9369L 13.5856 13.9369ZM 11.3153 13.9369L 13.5856 13.9369L 13.5856 11.9369L 11.3153 11.9369L 11.3153 13.9369ZM 9.68641 13.0324C 9.99865 13.4488 10.5844 13.9369 11.3153 13.9369L 11.3153 11.9369C 11.3675 11.9369 11.4003 11.9465 11.4108 11.95C 11.4214 11.9535 11.4184 11.9539 11.4038 11.9448C 11.3897 11.936 11.3702 11.9216 11.348 11.901C 11.326 11.8805 11.3049 11.8571 11.2865 11.8325L 9.68641 13.0324ZM 7.3056 9.85801C 8.00276 10.7955 9.46446 12.7554 9.70553 13.0571L 11.2674 11.8078C 11.0473 11.5329 9.60685 9.60093 8.91046 8.66451L 7.3056 9.85801ZM 7.9711 9.86132C 8.01459 9.80334 7.99986 9.84567 7.90552 9.88985C 7.79283 9.94263 7.64612 9.96017 7.50342 9.92351C 7.38019 9.89185 7.30922 9.83306 7.28387 9.80937C 7.25749 9.78472 7.24305 9.76361 7.23174 9.74304L 8.98432 8.77948C 8.85634 8.54669 8.5475 8.12679 8.00106 7.98641C 7.30186 7.80678 6.72688 8.18701 6.37119 8.6612L 7.9711 9.86132ZM 6.39515 12.0104C 6.74293 11.5308 7.54299 10.4322 7.97119 9.8612L 6.3711 8.66132C 5.93455 9.24351 5.12499 10.3551 4.77599 10.8364L 6.39515 12.0104ZM 3.93133 12.0373C 4.27705 12.4819 4.83203 12.8374 5.50287 12.669C 6.03308 12.5359 6.33375 12.1358 6.45972 11.9091L 4.71142 10.9378C 4.72711 10.9095 4.74731 10.8812 4.78014 10.8511C 4.81245 10.8214 4.8892 10.761 5.01599 10.7292C 5.16043 10.6929 5.30797 10.7101 5.42322 10.7625C 5.52177 10.8073 5.54442 10.8537 5.51008 10.8095L 3.93133 12.0373ZM 3.28495 11.1483C 3.32836 11.2355 3.38836 11.3183 3.39368 11.3259C 3.4175 11.3599 3.45471 11.4115 3.50002 11.4727C 3.58664 11.5896 3.72588 11.7731 3.93132 12.0373L 5.51009 10.8095C 5.31196 10.5548 5.18692 10.39 5.10716 10.2823C 5.06928 10.2312 5.04777 10.2014 5.03218 10.179C 5.0262 10.1705 5.02645 10.1707 5.02697 10.1716C 5.02571 10.1696 5.04155 10.1949 5.03827 10.1896C 5.04172 10.1953 5.05749 10.2211 5.0754 10.2571L 3.28495 11.1483ZM 4.19937 11.3334C 4.22875 11.2972 4.20032 11.3461 4.09825 11.3923C 3.97889 11.4462 3.81959 11.468 3.65645 11.4259C 3.51079 11.3884 3.41941 11.3151 3.37577 11.2725C 3.33214 11.23 3.30504 11.1885 3.28571 11.1498L 5.07465 10.2556C 4.96444 10.0351 4.68513 9.62587 4.15617 9.48938C 3.49744 9.31939 2.96599 9.67989 2.64731 10.072L 4.19937 11.3334ZM 2.7971 13.2279C 3.11926 12.7745 3.84237 11.7722 4.19948 11.3333L 2.6472 10.0721C 2.2548 10.5558 1.49329 11.6099 1.16677 12.0694L 2.7971 13.2279ZM 2.86566 12.8354C 2.9114 12.9414 2.90194 13.0174 2.90061 13.0277C 2.89937 13.0373 2.8977 13.0438 2.89598 13.0494C 2.89473 13.0535 2.88992 13.0687 2.87651 13.0956L 1.08736 12.2017C 0.974625 12.4274 0.765755 13.017 1.02936 13.6279L 2.86566 12.8354ZM 8 15C 5.88437 15 3.98882 14.0627 2.70377 12.5774L 1.19125 13.8859C 2.84003 15.7917 5.27945 17 8 17L 8 15ZM 13.2019 12.6842C 11.9193 14.1075 10.0646 15 8 15L 8 17C 10.6546 17 13.0418 15.8495 14.6877 14.023L 13.2019 12.6842Z"/>
</defs>
</svg>
